/* XPM */
static char * menu_focused_xpm[] = {
"16 12 2 1",
"#	c #C0C0C0",
"%	c #394870",
"%%%%%%%%%%%%%%%%",
"%%############%%",
"%%############%%",
"%%#%%%%%%%%%%#%%",
"%%#%%%%%%%%%%#%%",
"%%#%%%%%%%%%%#%%",
"%%#%########%#%%",
"%%#%%%%%%%%%%#%%",
"%%#%%%%%%%%%%#%%",
"%%#%%%%%%%%%%#%%",
"%%############%%",
"%%%%%%%%%%%%%%%%"
};
