/* XPM */
static char * tile_hovered_xpm[] = {
"16 12 2 1",
"#	c #f0f0f0",
"%	c #394870",
"%%%%%%%%%%%%%%%%",
"%##############%",
"%#%%%%#%%%%%%%#%",
"%#%%%%#%%%%%%%#%",
"%######%%%%%%%#%",
"%#%%%%#%%%%%%%#%",
"%#%%%%#%%%%%%%#%",
"%######%%%%%%%#%",
"%#%%%%#%%%%%%%#%",
"%#%%%%#%%%%%%%#%",
"%##############%",
"%%%%%%%%%%%%%%%%"
};
