/* XPM */
static char * unshade_hovered_xpm[] = {
"16 12 2 1",
"$	c #5369A3",
"#	c #F0F0F0",
"$$$$$$$$$$$$$$$$",
"$$############$$",
"$$#$$$$$$$$$$#$$",
"$$############$$",
"$$#$$$$$$$$$$#$$",
"$$#$$$$$$$$$$#$$",
"$$#$$$$$$$$$$#$$",
"$$#$$$$$$$$$$#$$",
"$$#$$$$$$$$$$#$$",
"$$#$$$$$$$$$$#$$",
"$$############$$",
"$$$$$$$$$$$$$$$$"
};
