#define shade_width 6
#define shade_height 6
static char shade_bits[] = {
  0x3F, 0x0C, 0x12, 0x21, 0x00, 0x00, };
