#define window_width 6
#define window_height 6
static unsigned char window_bits[] = {
  0x3f, 0x21, 0x21, 0x3f, 0x21, 0x3f, };
