/* XPM */
static char * lhalf_pressed_xpm[] = {
"16 12 4 1",
" 	c None",
".	c #161616",
"#	c #F0F0F0",
"$	c #647FC4",
"$$$$$$$$$$$$$$$$",
"$$#######$$$$$$$",
"$$#$$$$$#$$$$#$$",
"$$#######$$$##$$",
"$$#$$$$$#$$###$$",
"$$#$$$$$#$####$$",
"$$#$$$$$#$####$$",
"$$#$$$$$#$$###$$",
"$$#$$$$$#$$$##$$",
"$$#$$$$$#$$$$#$$",
"$$#######$$$$$$$",
"$$$$$$$$$$$$$$$$"
};
