/* XPM */
static char * menu_pressed_xpm[] = {
"16 12 2 1",
"#	c #f0f0f0",
"%	c #394870",
"%%%%%%%%%%%%%%%%",
"%%############%%",
"%%############%%",
"%%#%%%%%%%%%%#%%",
"%%#%########%#%%",
"%%#%%%%%%%%%%#%%",
"%%#%########%#%%",
"%%#%%%%%%%%%%#%%",
"%%#%########%#%%",
"%%#%%%%%%%%%%#%%",
"%%############%%",
"%%%%%%%%%%%%%%%%"
};
